<mxfile host="app.diagrams.net" modified="2021-10-19T08:43:07.360Z" agent="5.0 (Windows NT 10.0; Win64; x64) AppleWebKit/537.36 (KHTML, like Gecko) Chrome/87.0.4280.141 Safari/537.36" etag="5aokJXjpsV0YSvDSZc9O" version="15.5.5" type="github">
  <diagram id="uaJvhlREqcv1KZP51Zca" name="第 1 页">
    <mxGraphModel dx="836" dy="454" grid="1" gridSize="10" guides="1" tooltips="1" connect="1" arrows="1" fold="1" page="1" pageScale="1" pageWidth="827" pageHeight="1169" math="0" shadow="0">
      <root>
        <mxCell id="0" />
        <mxCell id="1" parent="0" />
        <mxCell id="PTvycfUt1t7GY3xs-Z38-3" value="" style="edgeStyle=orthogonalEdgeStyle;rounded=0;orthogonalLoop=1;jettySize=auto;html=1;dashed=1;dashPattern=1 1;" edge="1" parent="1" source="PTvycfUt1t7GY3xs-Z38-1" target="PTvycfUt1t7GY3xs-Z38-2">
          <mxGeometry relative="1" as="geometry" />
        </mxCell>
        <mxCell id="PTvycfUt1t7GY3xs-Z38-1" value="1.0.0" style="ellipse;whiteSpace=wrap;html=1;aspect=fixed;labelPosition=center;verticalLabelPosition=top;align=center;verticalAlign=bottom;labelBackgroundColor=none;fillColor=#dae8fc;strokeColor=#6c8ebf;" vertex="1" parent="1">
          <mxGeometry x="80" y="470" width="30" height="30" as="geometry" />
        </mxCell>
        <mxCell id="PTvycfUt1t7GY3xs-Z38-5" value="" style="edgeStyle=orthogonalEdgeStyle;rounded=0;orthogonalLoop=1;jettySize=auto;html=1;dashed=1;dashPattern=1 1;" edge="1" parent="1" source="PTvycfUt1t7GY3xs-Z38-2" target="PTvycfUt1t7GY3xs-Z38-4">
          <mxGeometry relative="1" as="geometry" />
        </mxCell>
        <mxCell id="PTvycfUt1t7GY3xs-Z38-2" value="1.0.1" style="ellipse;whiteSpace=wrap;html=1;aspect=fixed;labelPosition=center;verticalLabelPosition=top;align=center;verticalAlign=bottom;labelBackgroundColor=none;fillColor=#dae8fc;strokeColor=#6c8ebf;" vertex="1" parent="1">
          <mxGeometry x="250" y="470" width="30" height="30" as="geometry" />
        </mxCell>
        <mxCell id="PTvycfUt1t7GY3xs-Z38-7" value="" style="edgeStyle=orthogonalEdgeStyle;rounded=0;orthogonalLoop=1;jettySize=auto;html=1;dashed=1;dashPattern=1 1;" edge="1" parent="1" source="PTvycfUt1t7GY3xs-Z38-4" target="PTvycfUt1t7GY3xs-Z38-6">
          <mxGeometry relative="1" as="geometry" />
        </mxCell>
        <mxCell id="PTvycfUt1t7GY3xs-Z38-4" value="1.0.2" style="ellipse;whiteSpace=wrap;html=1;aspect=fixed;labelPosition=center;verticalLabelPosition=top;align=center;verticalAlign=bottom;labelBackgroundColor=none;fillColor=#dae8fc;strokeColor=#6c8ebf;" vertex="1" parent="1">
          <mxGeometry x="384" y="470" width="30" height="30" as="geometry" />
        </mxCell>
        <mxCell id="PTvycfUt1t7GY3xs-Z38-6" value="1.0.3" style="ellipse;whiteSpace=wrap;html=1;aspect=fixed;labelPosition=center;verticalLabelPosition=top;align=center;verticalAlign=bottom;labelBackgroundColor=none;fillColor=#dae8fc;strokeColor=#6c8ebf;" vertex="1" parent="1">
          <mxGeometry x="530" y="470" width="30" height="30" as="geometry" />
        </mxCell>
      </root>
    </mxGraphModel>
  </diagram>
</mxfile>
